<!-- <svg id="wave" style="transform:rotate(0deg); transition: 0.3s" viewBox="0 0 1440 490" version="1.1" xmlns="http://www.w3.org/2000/svg"><defs><linearGradient id="sw-gradient-0" x1="0" x2="0" y1="1" y2="0"><stop stop-color="rgba(6, 180, 154, 1)" offset="0%"></stop><stop stop-color="rgba(6, 180, 154, 1)" offset="100%"></stop></linearGradient></defs><path style="transform:translate(0, 0px); opacity:1" fill="url(#sw-gradient-0)" d="M0,343L240,302.2C480,261,960,180,1440,130.7C1920,82,2400,65,2880,122.5C3360,180,3840,310,4320,318.5C4800,327,5280,212,5760,179.7C6240,147,6720,196,7200,179.7C7680,163,8160,82,8640,81.7C9120,82,9600,163,10080,228.7C10560,294,11040,343,11520,302.2C12000,261,12480,131,12960,65.3C13440,0,13920,0,14400,8.2C14880,16,15360,33,15840,40.8C16320,49,16800,49,17280,40.8C17760,33,18240,16,18720,8.2C19200,0,19680,0,20160,0C20640,0,21120,0,21600,16.3C22080,33,22560,65,23040,138.8C23520,212,24000,327,24480,367.5C24960,408,25440,376,25920,351.2C26400,327,26880,310,27360,253.2C27840,196,28320,98,28800,65.3C29280,33,29760,65,30240,65.3C30720,65,31200,33,31680,49C32160,65,32640,131,33120,196C33600,261,34080,327,34320,359.3L34560,392L34560,490L34320,490C34080,490,33600,490,33120,490C32640,490,32160,490,31680,490C31200,490,30720,490,30240,490C29760,490,29280,490,28800,490C28320,490,27840,490,27360,490C26880,490,26400,490,25920,490C25440,490,24960,490,24480,490C24000,490,23520,490,23040,490C22560,490,22080,490,21600,490C21120,490,20640,490,20160,490C19680,490,19200,490,18720,490C18240,490,17760,490,17280,490C16800,490,16320,490,15840,490C15360,490,14880,490,14400,490C13920,490,13440,490,12960,490C12480,490,12000,490,11520,490C11040,490,10560,490,10080,490C9600,490,9120,490,8640,490C8160,490,7680,490,7200,490C6720,490,6240,490,5760,490C5280,490,4800,490,4320,490C3840,490,3360,490,2880,490C2400,490,1920,490,1440,490C960,490,480,490,240,490L0,490Z"></path></svg> -->

<svg id="wave" style="transform:rotate(0deg); transition: 0.3s" viewBox="0 0 1440 370" version="1.1" xmlns="http://www.w3.org/2000/svg"><defs><linearGradient id="sw-gradient-0" x1="0" x2="0" y1="1" y2="0"><stop stop-color="rgba(6, 180, 154, 1)" offset="0%"></stop><stop stop-color="rgba(6, 180, 154, 1)" offset="100%"></stop></linearGradient></defs><path style="transform:translate(0, 0px); opacity:1" fill="url(#sw-gradient-0)" d="M0,259L120,228.2C240,197,480,136,720,92.5C960,49,1200,25,1440,37C1680,49,1920,99,2160,135.7C2400,173,2640,197,2880,178.8C3120,160,3360,99,3600,61.7C3840,25,4080,12,4320,37C4560,62,4800,123,5040,129.5C5280,136,5520,86,5760,111C6000,136,6240,234,6480,252.8C6720,271,6960,210,7200,209.7C7440,210,7680,271,7920,289.8C8160,308,8400,284,8640,234.3C8880,185,9120,111,9360,104.8C9600,99,9840,160,10080,172.7C10320,185,10560,148,10800,141.8C11040,136,11280,160,11520,141.8C11760,123,12000,62,12240,55.5C12480,49,12720,99,12960,98.7C13200,99,13440,49,13680,49.3C13920,49,14160,99,14400,123.3C14640,148,14880,148,15120,129.5C15360,111,15600,74,15840,86.3C16080,99,16320,160,16560,160.3C16800,160,17040,99,17160,67.8L17280,37L17280,370L17160,370C17040,370,16800,370,16560,370C16320,370,16080,370,15840,370C15600,370,15360,370,15120,370C14880,370,14640,370,14400,370C14160,370,13920,370,13680,370C13440,370,13200,370,12960,370C12720,370,12480,370,12240,370C12000,370,11760,370,11520,370C11280,370,11040,370,10800,370C10560,370,10320,370,10080,370C9840,370,9600,370,9360,370C9120,370,8880,370,8640,370C8400,370,8160,370,7920,370C7680,370,7440,370,7200,370C6960,370,6720,370,6480,370C6240,370,6000,370,5760,370C5520,370,5280,370,5040,370C4800,370,4560,370,4320,370C4080,370,3840,370,3600,370C3360,370,3120,370,2880,370C2640,370,2400,370,2160,370C1920,370,1680,370,1440,370C1200,370,960,370,720,370C480,370,240,370,120,370L0,370Z"></path></svg>