<?xml version="1.0" encoding="utf-8"?>
<svg xmlns="http://www.w3.org/2000/svg" xmlns:xlink="http://www.w3.org/1999/xlink" style="margin: auto; background: none; display: block; shape-rendering: auto;" width="200px" height="200px" viewBox="0 0 100 100" preserveAspectRatio="xMidYMid">
<g transform="rotate(0 50 50)">
  <rect x="45.5" y="19.5" rx="4.5" ry="6.46" width="9" height="19" fill="#e46547">
    <animate attributeName="opacity" values="1;0" keyTimes="0;1" dur="2.0408163265306123s" begin="-1.8140589569160996s" repeatCount="indefinite"></animate>
  </rect>
</g><g transform="rotate(40 50 50)">
  <rect x="45.5" y="19.5" rx="4.5" ry="6.46" width="9" height="19" fill="#fecc47">
    <animate attributeName="opacity" values="1;0" keyTimes="0;1" dur="2.0408163265306123s" begin="-1.5873015873015872s" repeatCount="indefinite"></animate>
  </rect>
</g><g transform="rotate(80 50 50)">
  <rect x="45.5" y="19.5" rx="4.5" ry="6.46" width="9" height="19" fill="#59a82c">
    <animate attributeName="opacity" values="1;0" keyTimes="0;1" dur="2.0408163265306123s" begin="-1.3605442176870748s" repeatCount="indefinite"></animate>
  </rect>
</g><g transform="rotate(120 50 50)">
  <rect x="45.5" y="19.5" rx="4.5" ry="6.46" width="9" height="19" fill="#27abea">
    <animate attributeName="opacity" values="1;0" keyTimes="0;1" dur="2.0408163265306123s" begin="-1.1337868480725624s" repeatCount="indefinite"></animate>
  </rect>
</g><g transform="rotate(160 50 50)">
  <rect x="45.5" y="19.5" rx="4.5" ry="6.46" width="9" height="19" fill="#e46547">
    <animate attributeName="opacity" values="1;0" keyTimes="0;1" dur="2.0408163265306123s" begin="-0.9070294784580498s" repeatCount="indefinite"></animate>
  </rect>
</g><g transform="rotate(200 50 50)">
  <rect x="45.5" y="19.5" rx="4.5" ry="6.46" width="9" height="19" fill="#fecc47">
    <animate attributeName="opacity" values="1;0" keyTimes="0;1" dur="2.0408163265306123s" begin="-0.6802721088435374s" repeatCount="indefinite"></animate>
  </rect>
</g><g transform="rotate(240 50 50)">
  <rect x="45.5" y="19.5" rx="4.5" ry="6.46" width="9" height="19" fill="#59a82c">
    <animate attributeName="opacity" values="1;0" keyTimes="0;1" dur="2.0408163265306123s" begin="-0.4535147392290249s" repeatCount="indefinite"></animate>
  </rect>
</g><g transform="rotate(280 50 50)">
  <rect x="45.5" y="19.5" rx="4.5" ry="6.46" width="9" height="19" fill="#27abea">
    <animate attributeName="opacity" values="1;0" keyTimes="0;1" dur="2.0408163265306123s" begin="-0.22675736961451246s" repeatCount="indefinite"></animate>
  </rect>
</g><g transform="rotate(320 50 50)">
  <rect x="45.5" y="19.5" rx="4.5" ry="6.46" width="9" height="19" fill="#e46547">
    <animate attributeName="opacity" values="1;0" keyTimes="0;1" dur="2.0408163265306123s" begin="0s" repeatCount="indefinite"></animate>
  </rect>
</g>
<!-- [ldio] generated by https://loading.io/ --></svg>